<svg width="25" height="25" viewBox="0 0 25 25" fill="none" xmlns="http://www.w3.org/2000/svg">
<path d="M13.5417 5.07479C13.5417 4.51424 13.0753 4.05983 12.5 4.05983C11.9247 4.05983 11.4583 4.51424 11.4583 5.07479V11.1645H5.20833C4.63304 11.1645 4.16667 11.6189 4.16667 12.1795C4.16667 12.74 4.63304 13.1944 5.20833 13.1944H11.4583V19.2842C11.4583 19.8447 11.9247 20.2991 12.5 20.2991C13.0753 20.2991 13.5417 19.8447 13.5417 19.2842V13.1944H19.7917C20.367 13.1944 20.8333 12.74 20.8333 12.1795C20.8333 11.6189 20.367 11.1645 19.7917 11.1645H13.5417V5.07479Z" fill="#252930"/>
</svg>
