<svg width="30" height="30" viewBox="0 0 30 30" fill="none" xmlns="http://www.w3.org/2000/svg">
<path d="M16.25 6.08974C16.25 5.41709 15.6904 4.8718 15 4.8718C14.3096 4.8718 13.75 5.41709 13.75 6.08974V13.3974H6.25C5.55964 13.3974 5 13.9427 5 14.6154C5 15.288 5.55964 15.8333 6.25 15.8333H13.75V23.141C13.75 23.8137 14.3096 24.359 15 24.359C15.6904 24.359 16.25 23.8137 16.25 23.141V15.8333H23.75C24.4404 15.8333 25 15.288 25 14.6154C25 13.9427 24.4404 13.3974 23.75 13.3974H16.25V6.08974Z" fill="#252930"/>
</svg>
