<svg width="30" height="30" viewBox="0 0 30 30" fill="none" xmlns="http://www.w3.org/2000/svg">
<path d="M5.00003 8.5875C4.3207 8.58503 3.65733 8.38133 3.09368 8.00211C2.53003 7.62289 2.09138 7.08517 1.83312 6.45684C1.57486 5.8285 1.50857 5.13773 1.64261 4.47175C1.77666 3.80576 2.10503 3.19443 2.58627 2.71494C3.06751 2.23544 3.68003 1.90929 4.34649 1.77766C5.01296 1.64604 5.70349 1.71484 6.33088 1.97538C6.95827 2.23592 7.4944 2.67651 7.87157 3.24153C8.24873 3.80655 8.45003 4.47066 8.45003 5.15C8.45004 5.60247 8.36071 6.05049 8.18718 6.46837C8.01365 6.88624 7.75932 7.26574 7.4388 7.58511C7.11827 7.90447 6.73785 8.15742 6.31935 8.32943C5.90085 8.50145 5.4525 8.58914 5.00003 8.5875ZM5.00003 3.5875C4.69154 3.58997 4.39069 3.6837 4.13539 3.85688C3.88008 4.03007 3.68176 4.27495 3.56541 4.56067C3.44907 4.84639 3.4199 5.16015 3.4816 5.46242C3.54329 5.76469 3.69308 6.04193 3.91209 6.2592C4.1311 6.47647 4.40952 6.62404 4.71227 6.68333C5.01502 6.74261 5.32855 6.71095 5.61333 6.59233C5.89811 6.47371 6.1414 6.27344 6.31255 6.01676C6.48369 5.76009 6.57502 5.4585 6.57503 5.15C6.57504 4.94375 6.53421 4.73955 6.45491 4.54916C6.37561 4.35876 6.25939 4.18596 6.11298 4.0407C5.96656 3.89545 5.79283 3.78061 5.60182 3.70283C5.4108 3.62505 5.20627 3.58585 5.00003 3.5875Z" fill="#292929"/>
<path d="M15 8.58749C14.3201 8.58749 13.6555 8.38588 13.0902 8.00816C12.5249 7.63045 12.0843 7.09358 11.8242 6.46546C11.564 5.83734 11.4959 5.14617 11.6285 4.47936C11.7612 3.81256 12.0886 3.20005 12.5693 2.71931C13.0501 2.23857 13.6626 1.91118 14.3294 1.77854C14.9962 1.6459 15.6873 1.71398 16.3155 1.97415C16.9436 2.23433 17.4805 2.67492 17.8582 3.24022C18.2359 3.80551 18.4375 4.47011 18.4375 5.14999C18.4375 5.60141 18.3486 6.04841 18.1758 6.46546C18.0031 6.88252 17.7499 7.26147 17.4307 7.58067C17.1115 7.89987 16.7325 8.15307 16.3155 8.32582C15.8984 8.49857 15.4514 8.58749 15 8.58749ZM15 3.58749C14.691 3.58749 14.3889 3.67913 14.1319 3.85082C13.875 4.02251 13.6747 4.26654 13.5564 4.55204C13.4382 4.83755 13.4072 5.15172 13.4675 5.45482C13.5278 5.75791 13.6766 6.03632 13.8951 6.25484C14.1137 6.47336 14.3921 6.62218 14.6952 6.68247C14.9983 6.74275 15.3124 6.71181 15.5979 6.59355C15.8834 6.47529 16.1275 6.27502 16.2992 6.01807C16.4709 5.76111 16.5625 5.45902 16.5625 5.14999C16.5625 4.73559 16.3979 4.33816 16.1048 4.04513C15.8118 3.75211 15.4144 3.58749 15 3.58749Z" fill="#292929"/>
<path d="M25.1001 8.58749C24.4202 8.58749 23.7556 8.38588 23.1903 8.00816C22.625 7.63045 22.1844 7.09358 21.9242 6.46546C21.6641 5.83734 21.596 5.14617 21.7286 4.47936C21.8613 3.81256 22.1886 3.20005 22.6694 2.71931C23.1501 2.23857 23.7626 1.91118 24.4294 1.77854C25.0963 1.6459 25.7874 1.71398 26.4155 1.97415C27.0437 2.23433 27.5805 2.67492 27.9582 3.24022C28.336 3.80551 28.5376 4.47011 28.5376 5.14999C28.5376 6.06167 28.1754 6.93601 27.5307 7.58067C26.8861 8.22532 26.0117 8.58749 25.1001 8.58749ZM25.1001 3.58749C24.791 3.58749 24.4889 3.67913 24.232 3.85082C23.975 4.02251 23.7748 4.26654 23.6565 4.55204C23.5382 4.83755 23.5073 5.15172 23.5676 5.45482C23.6279 5.75791 23.7767 6.03632 23.9952 6.25484C24.2137 6.47336 24.4921 6.62218 24.7952 6.68247C25.0983 6.74275 25.4125 6.71181 25.698 6.59355C25.9835 6.47529 26.2275 6.27502 26.3992 6.01807C26.5709 5.76111 26.6626 5.45902 26.6626 5.14999C26.6626 4.73559 26.4979 4.33816 26.2049 4.04513C25.9119 3.75211 25.5145 3.58749 25.1001 3.58749Z" fill="#292929"/>
<path d="M4.90004 18.4375C4.22017 18.4375 3.55556 18.2359 2.99027 17.8582C2.42497 17.4805 1.98438 16.9436 1.7242 16.3155C1.46403 15.6874 1.39595 14.9962 1.52859 14.3294C1.66123 13.6626 1.98862 13.0501 2.46936 12.5693C2.9501 12.0886 3.56261 11.7612 4.22942 11.6286C4.89623 11.4959 5.58739 11.564 6.21551 11.8242C6.84364 12.0843 7.3805 12.5249 7.75822 13.0902C8.13593 13.6555 8.33754 14.3201 8.33754 15C8.33754 15.9117 7.97538 16.786 7.33072 17.4307C6.68606 18.0753 5.81172 18.4375 4.90004 18.4375ZM4.90004 13.4375C4.59101 13.4375 4.28891 13.5291 4.03196 13.7008C3.77501 13.8725 3.57474 14.1165 3.45648 14.4021C3.33822 14.6876 3.30727 15.0017 3.36756 15.3048C3.42785 15.6079 3.57667 15.8863 3.79519 16.1049C4.01371 16.3234 4.29212 16.4722 4.59521 16.5325C4.89831 16.5928 5.21247 16.5618 5.49798 16.4436C5.78349 16.3253 6.02752 16.125 6.19921 15.8681C6.3709 15.6111 6.46254 15.309 6.46254 15C6.45927 14.5866 6.2936 14.1911 6.00128 13.8988C5.70896 13.6064 5.31343 13.4408 4.90004 13.4375Z" fill="#292929"/>
<path d="M15.0001 18.4375C14.3182 18.4474 13.6487 18.2543 13.0769 17.8826C12.505 17.511 12.0567 16.9777 11.7888 16.3505C11.521 15.7233 11.4457 15.0306 11.5726 14.3606C11.6996 13.6905 12.023 13.0733 12.5017 12.5876C12.9804 12.1018 13.5927 11.7694 14.2609 11.6327C14.929 11.4959 15.6227 11.561 16.2537 11.8197C16.8848 12.0783 17.4246 12.5188 17.8046 13.0851C18.1846 13.6515 18.3875 14.318 18.3876 15C18.3877 15.9031 18.0324 16.7699 17.3985 17.4132C16.7646 18.0564 15.9031 18.4244 15.0001 18.4375ZM15.0001 13.4375C14.6891 13.4275 14.3822 13.5107 14.1188 13.6762C13.8554 13.8417 13.6473 14.0821 13.5214 14.3666C13.3954 14.6511 13.3572 14.9667 13.4118 15.273C13.4663 15.5793 13.611 15.8624 13.8274 16.0859C14.0438 16.3095 14.322 16.4634 14.6264 16.5278C14.9308 16.5923 15.2475 16.5644 15.5359 16.4477C15.8243 16.3311 16.0714 16.131 16.2454 15.873C16.4194 15.6151 16.5124 15.3111 16.5126 15C16.5128 14.5941 16.355 14.2041 16.0728 13.9125C15.7905 13.6208 15.4058 13.4505 15.0001 13.4375Z" fill="#292929"/>
<path d="M25 18.4375C24.3196 18.44 23.6538 18.2405 23.0869 17.8642C22.5199 17.488 22.0774 16.952 21.8153 16.3241C21.5532 15.6962 21.4833 15.0047 21.6146 14.3371C21.7458 13.6694 22.0722 13.0557 22.5524 12.5738C23.0327 12.0918 23.6451 11.7631 24.3123 11.6295C24.9794 11.4958 25.6712 11.5632 26.3001 11.823C26.9289 12.0828 27.4665 12.5234 27.8448 13.0889C28.2231 13.6545 28.425 14.3196 28.425 15C28.425 15.9095 28.0646 16.782 27.4226 17.4263C26.7807 18.0705 25.9095 18.4342 25 18.4375ZM25 13.4375C24.6905 13.435 24.3872 13.5245 24.1286 13.6947C23.87 13.8649 23.6678 14.108 23.5476 14.3933C23.4274 14.6786 23.3947 14.9932 23.4535 15.2971C23.5124 15.601 23.6602 15.8806 23.8782 16.1003C24.0963 16.3201 24.3746 16.4702 24.6781 16.5315C24.9815 16.5928 25.2963 16.5626 25.5825 16.4447C25.8688 16.3268 26.1135 16.1266 26.2858 15.8693C26.458 15.6121 26.55 15.3095 26.55 15C26.55 14.5877 26.3871 14.1922 26.0968 13.8995C25.8065 13.6069 25.4123 13.4408 25 13.4375Z" fill="#292929"/>
<path d="M4.99998 28.2875C4.32011 28.2875 3.6555 28.0859 3.09021 27.7082C2.52492 27.3304 2.08432 26.7936 1.82415 26.1654C1.56397 25.5373 1.4959 24.8462 1.62853 24.1794C1.76117 23.5125 2.08856 22.9 2.5693 22.4193C3.05005 21.9386 3.66255 21.6112 4.32936 21.4785C4.99617 21.3459 5.68734 21.414 6.31546 21.6741C6.94358 21.9343 7.48044 22.3749 7.85816 22.9402C8.23588 23.5055 8.43748 24.1701 8.43748 24.85C8.43748 25.7617 8.07532 26.636 7.43066 27.2807C6.78601 27.9253 5.91166 28.2875 4.99998 28.2875ZM4.99998 23.2875C4.69095 23.2875 4.38886 23.3791 4.1319 23.5508C3.87495 23.7225 3.67468 23.9665 3.55642 24.252C3.43816 24.5375 3.40722 24.8517 3.4675 25.1548C3.52779 25.4579 3.67661 25.7363 3.89513 25.9548C4.11365 26.1733 4.39206 26.3222 4.69515 26.3825C4.99825 26.4427 5.31242 26.4118 5.59793 26.2935C5.88344 26.1753 6.12746 25.975 6.29915 25.7181C6.47084 25.4611 6.56248 25.159 6.56248 24.85C6.56248 24.4356 6.39786 24.0381 6.10484 23.7451C5.81181 23.4521 5.41438 23.2875 4.99998 23.2875Z" fill="#292929"/>
<path d="M15 28.2875C14.3201 28.2875 13.6555 28.0859 13.0902 27.7082C12.5249 27.3304 12.0843 26.7936 11.8242 26.1654C11.564 25.5373 11.4959 24.8462 11.6285 24.1794C11.7612 23.5125 12.0886 22.9 12.5693 22.4193C13.0501 21.9386 13.6626 21.6112 14.3294 21.4785C14.9962 21.3459 15.6873 21.414 16.3155 21.6741C16.9436 21.9343 17.4805 22.3749 17.8582 22.9402C18.2359 23.5055 18.4375 24.1701 18.4375 24.85C18.4342 25.7606 18.071 26.6331 17.427 27.277C16.7831 27.921 15.9107 28.2842 15 28.2875ZM15 23.2875C14.691 23.2875 14.3889 23.3791 14.1319 23.5508C13.875 23.7225 13.6747 23.9665 13.5564 24.252C13.4382 24.5375 13.4072 24.8517 13.4675 25.1548C13.5278 25.4579 13.6766 25.7363 13.8951 25.9548C14.1137 26.1733 14.3921 26.3222 14.6952 26.3825C14.9983 26.4427 15.3124 26.4118 15.5979 26.2935C15.8834 26.1753 16.1275 25.975 16.2992 25.7181C16.4709 25.4611 16.5625 25.159 16.5625 24.85C16.5625 24.4356 16.3979 24.0381 16.1048 23.7451C15.8118 23.4521 15.4144 23.2875 15 23.2875Z" fill="#292929"/>
<path d="M25.1001 28.2875C24.4202 28.2875 23.7556 28.0859 23.1903 27.7082C22.625 27.3304 22.1844 26.7936 21.9242 26.1654C21.6641 25.5373 21.596 24.8462 21.7286 24.1794C21.8613 23.5125 22.1886 22.9 22.6694 22.4193C23.1501 21.9386 23.7626 21.6112 24.4294 21.4785C25.0963 21.3459 25.7874 21.414 26.4155 21.6741C27.0437 21.9343 27.5805 22.3749 27.9582 22.9402C28.336 23.5055 28.5376 24.1701 28.5376 24.85C28.5376 25.7617 28.1754 26.636 27.5307 27.2807C26.8861 27.9253 26.0117 28.2875 25.1001 28.2875ZM25.1001 23.2875C24.791 23.2875 24.4889 23.3791 24.232 23.5508C23.975 23.7225 23.7748 23.9665 23.6565 24.252C23.5382 24.5375 23.5073 24.8517 23.5676 25.1548C23.6279 25.4579 23.7767 25.7363 23.9952 25.9548C24.2137 26.1733 24.4921 26.3222 24.7952 26.3825C25.0983 26.4427 25.4125 26.4118 25.698 26.2935C25.9835 26.1753 26.2275 25.975 26.3992 25.7181C26.5709 25.4611 26.6626 25.159 26.6626 24.85C26.6626 24.4356 26.4979 24.0381 26.2049 23.7451C25.9119 23.4521 25.5145 23.2875 25.1001 23.2875Z" fill="#292929"/>
</svg>
