<svg width="30" height="30" viewBox="0 0 30 30" fill="none" xmlns="http://www.w3.org/2000/svg">
<path d="M25.6375 27.2875H4.38751C4.13887 27.2875 3.90041 27.1887 3.7246 27.0129C3.54878 26.8371 3.45001 26.5986 3.45001 26.35V12.325C3.44467 12.1897 3.46873 12.0548 3.52051 11.9296C3.5723 11.8045 3.6506 11.692 3.75001 11.6L14.4 2.92501C14.5645 2.78661 14.7725 2.71072 14.9875 2.71072C15.2025 2.71072 15.4105 2.78661 15.575 2.92501L26.25 11.6C26.3562 11.6885 26.4416 11.7994 26.4999 11.9247C26.5583 12.0501 26.5882 12.1868 26.5875 12.325V26.35C26.5875 26.4742 26.5629 26.5971 26.515 26.7117C26.4671 26.8263 26.3969 26.9302 26.3085 27.0174C26.2201 27.1046 26.1153 27.1734 26.0001 27.2198C25.8849 27.2661 25.7617 27.2892 25.6375 27.2875ZM5.30001 25.4125H24.7V12.7625L15 4.86251L5.30001 12.7625V25.4125Z" fill="#292929"/>
</svg>
