<svg width="20" height="20" viewBox="0 0 20 20" fill="none" xmlns="http://www.w3.org/2000/svg">
<path fill-rule="evenodd" clip-rule="evenodd" d="M18.0893 1.88592C18.3017 2.09561 18.3834 2.40194 18.303 2.68767L14.1363 17.4929C14.0509 17.7964 13.7973 18.0251 13.4833 18.0818C13.1693 18.1385 12.8501 18.0132 12.6614 17.7591L8.15384 11.6923L2.00722 7.24335C1.74983 7.05705 1.62286 6.742 1.68029 6.4321C1.73772 6.12219 1.96945 5.87189 2.27699 5.78757L17.277 1.67502C17.5665 1.59565 17.8768 1.67624 18.0893 1.88592ZM9.84481 11.1865L12.99 15.4197L15.8492 5.2601L9.84481 11.1865ZM14.6707 4.0969L8.6663 10.0233L4.37744 6.919L14.6707 4.0969Z" fill="#252930"/>
</svg>
