<svg width="30" height="30" viewBox="0 0 30 30" fill="none" xmlns="http://www.w3.org/2000/svg">
<path d="M15 28.325C14.4993 28.3227 14.0052 28.2094 13.5535 27.9933C13.1017 27.7771 12.7035 27.4635 12.3875 27.075L11.2875 25.825C11.1299 25.641 10.9313 25.4965 10.7077 25.4032C10.4841 25.3098 10.2417 25.2702 10 25.2875L8.31253 25.4375C7.81585 25.4794 7.31598 25.4128 6.8476 25.2423C6.37922 25.0718 5.95353 24.8014 5.60003 24.45C5.24843 24.0961 4.97712 23.6707 4.80457 23.2027C4.63202 22.7346 4.56226 22.2349 4.60003 21.7375L4.73753 20C4.74465 19.7638 4.69897 19.5291 4.60382 19.3128C4.50867 19.0966 4.36645 18.9043 4.18753 18.75L2.93753 17.6625C2.55613 17.341 2.24955 16.9401 2.03924 16.4877C1.82893 16.0354 1.71997 15.5426 1.71997 15.0437C1.71997 14.5449 1.82893 14.0521 2.03924 13.5998C2.24955 13.1474 2.55613 12.7465 2.93753 12.425L4.18753 11.325C4.37466 11.1623 4.52 10.957 4.61136 10.7264C4.70271 10.4959 4.73741 10.2467 4.71253 10L4.56253 8.3125C4.52396 7.81608 4.59213 7.31716 4.76247 6.84928C4.9328 6.38141 5.20134 5.95543 5.55003 5.6C5.90192 5.24564 6.32704 4.97252 6.7956 4.79978C7.26417 4.62704 7.76484 4.55885 8.26253 4.6L10 4.7375C10.2367 4.74832 10.4726 4.70431 10.6894 4.6089C10.9063 4.5135 11.0981 4.36928 11.25 4.1875L12.3375 2.9375C12.6553 2.55096 13.0538 2.23874 13.5052 2.02278C13.9565 1.80682 14.4497 1.69238 14.95 1.6875C15.4508 1.68979 15.9449 1.80309 16.3966 2.01923C16.8483 2.23538 17.2465 2.54899 17.5625 2.9375L18.6625 4.1875C18.8279 4.37482 19.0354 4.52012 19.2679 4.61141C19.5005 4.70269 19.7514 4.73735 20 4.7125L21.6875 4.5625C22.192 4.51411 22.701 4.57787 23.1779 4.74922C23.6549 4.92056 24.0881 5.19525 24.4464 5.55362C24.8048 5.91198 25.0795 6.34515 25.2508 6.82211C25.4222 7.29907 25.4859 7.80801 25.4375 8.3125L25.2625 10C25.2554 10.2362 25.3011 10.4709 25.3962 10.6872C25.4914 10.9034 25.6336 11.0957 25.8125 11.25L27.0625 12.3375C27.4439 12.659 27.7505 13.0599 27.9608 13.5123C28.1711 13.9646 28.2801 14.4574 28.2801 14.9562C28.2801 15.4551 28.1711 15.9479 27.9608 16.4002C27.7505 16.8526 27.4439 17.2535 27.0625 17.575L25.8125 18.675C25.6254 18.8377 25.4801 19.043 25.3887 19.2736C25.2974 19.5041 25.2627 19.7533 25.2875 20L25.4375 21.6875C25.4761 22.1839 25.4079 22.6828 25.2376 23.1507C25.0673 23.6186 24.7987 24.0446 24.45 24.4C24.0981 24.7544 23.673 25.0275 23.2045 25.2002C22.7359 25.373 22.2352 25.4411 21.7375 25.4L20 25.2625C19.7639 25.2554 19.5291 25.3011 19.3129 25.3962C19.0966 25.4914 18.9043 25.6336 18.75 25.8125L17.6625 27.0625C17.3448 27.449 16.9463 27.7613 16.4949 27.9772C16.0436 28.1932 15.5504 28.3076 15.05 28.3125L15 28.325ZM10.125 23.4125C10.6252 23.4182 11.1181 23.533 11.5694 23.7489C12.0206 23.9648 12.4192 24.2766 12.7375 24.6625L13.8375 25.9125C13.9834 26.0852 14.1653 26.224 14.3704 26.319C14.5755 26.414 14.799 26.463 15.025 26.4625C15.2631 26.4748 15.5007 26.4302 15.718 26.3324C15.9354 26.2346 16.1264 26.0863 16.275 25.9L17.3625 24.65C17.7101 24.2242 18.1551 23.8884 18.6599 23.6708C19.1646 23.4533 19.7143 23.3604 20.2625 23.4L21.95 23.525C22.1789 23.5501 22.4105 23.5226 22.6271 23.4446C22.8437 23.3666 23.0397 23.2402 23.2 23.075C23.3623 22.9125 23.4867 22.7163 23.5645 22.5002C23.6423 22.2842 23.6715 22.0536 23.65 21.825L23.5125 20.15C23.4718 19.6017 23.5643 19.0516 23.7819 18.5467C23.9995 18.0418 24.336 17.5969 24.7625 17.25L26.0125 16.15C26.1853 16.0041 26.324 15.8223 26.419 15.6171C26.514 15.412 26.563 15.1886 26.5625 14.9625C26.5748 14.7244 26.5302 14.4869 26.4324 14.2695C26.3346 14.0521 26.1864 13.8612 26 13.7125L24.75 12.625C24.3251 12.2767 23.9898 11.8316 23.7723 11.327C23.5548 10.8225 23.4615 10.2731 23.5 9.725L23.625 8.0375C23.6443 7.8116 23.6137 7.58422 23.5356 7.37141C23.4574 7.15859 23.3335 6.96552 23.1726 6.8058C23.0117 6.64608 22.8177 6.5236 22.6043 6.44701C22.3909 6.37042 22.1633 6.34157 21.9375 6.3625L20.2625 6.5C19.7141 6.54175 19.1637 6.44983 18.6586 6.23211C18.1535 6.0144 17.7088 5.67739 17.3625 5.25L16.2625 4C16.0992 3.8353 15.9009 3.70937 15.6824 3.63148C15.4639 3.5536 15.2307 3.52576 15 3.55C14.762 3.53769 14.5244 3.58229 14.307 3.68012C14.0896 3.77794 13.8987 3.92616 13.75 4.1125L12.6625 5.3625C12.3122 5.78509 11.8668 6.11868 11.3627 6.33595C10.8587 6.55322 10.3103 6.64799 9.76253 6.6125L8.07503 6.4875C7.84617 6.46242 7.6146 6.48993 7.39798 6.56791C7.18136 6.64589 6.9854 6.7723 6.82503 6.9375C6.66279 7.09999 6.53834 7.29624 6.46057 7.51229C6.38279 7.72834 6.35358 7.95888 6.37503 8.1875L6.51253 9.8625C6.55322 10.4108 6.46081 10.9609 6.24317 11.4658C6.02553 11.9707 5.68911 12.4156 5.26253 12.7625L4.01253 13.8625C3.83981 14.0084 3.70107 14.1902 3.60606 14.3954C3.51105 14.6005 3.46206 14.8239 3.46253 15.05C3.45022 15.2881 3.49483 15.5256 3.59265 15.743C3.69047 15.9604 3.8387 16.1513 4.02503 16.3L5.27503 17.3875C5.69999 17.7358 6.03527 18.1809 6.25276 18.6855C6.47025 19.19 6.56362 19.7394 6.52503 20.2875L6.40003 21.975C6.38078 22.2009 6.41132 22.4283 6.4895 22.6411C6.56768 22.8539 6.69159 23.047 6.8525 23.2067C7.01341 23.3664 7.2074 23.4889 7.42079 23.5655C7.63419 23.6421 7.86178 23.6709 8.08753 23.65L9.76253 23.5125L10.125 23.4125Z" fill="#292929"/>
<path d="M15 19.6875C13.7568 19.6875 12.5645 19.1936 11.6854 18.3146C10.8064 17.4355 10.3125 16.2432 10.3125 15C10.3125 13.7568 10.8064 12.5645 11.6854 11.6854C12.5645 10.8064 13.7568 10.3125 15 10.3125C16.2432 10.3125 17.4355 10.8064 18.3146 11.6854C19.1936 12.5645 19.6875 13.7568 19.6875 15C19.6875 16.2432 19.1936 17.4355 18.3146 18.3146C17.4355 19.1936 16.2432 19.6875 15 19.6875ZM15 12.1875C14.2541 12.1875 13.5387 12.4838 13.0113 13.0113C12.4838 13.5387 12.1875 14.2541 12.1875 15C12.1875 15.7459 12.4838 16.4613 13.0113 16.9887C13.5387 17.5162 14.2541 17.8125 15 17.8125C15.7459 17.8125 16.4613 17.5162 16.9887 16.9887C17.5162 16.4613 17.8125 15.7459 17.8125 15C17.8125 14.2541 17.5162 13.5387 16.9887 13.0113C16.4613 12.4838 15.7459 12.1875 15 12.1875Z" fill="#292929"/>
</svg>
