<svg width="26" height="26" viewBox="0 0 26 26" fill="none" xmlns="http://www.w3.org/2000/svg">
<path d="M11.9709 24.3317C11.8641 24.3322 11.7584 24.3114 11.6598 24.2704C11.5612 24.2295 11.4717 24.1693 11.3967 24.0933C11.2446 23.941 11.1591 23.7345 11.1591 23.5192C11.1591 23.3039 11.2446 23.0974 11.3967 22.945L13.3576 20.995L11.1909 18.8283C11.0387 18.676 10.9533 18.4695 10.9533 18.2542C10.9533 18.0389 11.0387 17.8323 11.1909 17.68C11.3464 17.5298 11.5542 17.4458 11.7705 17.4458C11.9867 17.4458 12.1945 17.5298 12.3501 17.68L15.0801 20.41C15.2329 20.5642 15.3186 20.7725 15.3186 20.9896C15.3186 21.2067 15.2329 21.415 15.0801 21.5692L12.5451 24.0933C12.4712 24.1708 12.382 24.2321 12.2831 24.2731C12.1843 24.3141 12.0779 24.3341 11.9709 24.3317Z" fill="#292929"/>
<path d="M13.1842 14.0833C11.9522 14.0833 10.7478 13.718 9.72346 13.0335C8.69908 12.3491 7.90067 11.3762 7.4292 10.238C6.95773 9.09974 6.83437 7.84726 7.07473 6.63892C7.31508 5.43058 7.90835 4.32065 8.77952 3.44948C9.65068 2.57832 10.7606 1.98505 11.969 1.74469C13.1773 1.50434 14.4298 1.6277 15.568 2.09917C16.7062 2.57064 17.6791 3.36905 18.3636 4.39343C19.048 5.41781 19.4134 6.62216 19.4134 7.85417C19.4105 9.50537 18.7533 11.0881 17.5857 12.2557C16.4181 13.4233 14.8354 14.0805 13.1842 14.0833ZM13.1842 3.25C12.2736 3.25 11.3834 3.52003 10.6263 4.02595C9.86911 4.53186 9.27898 5.25093 8.93051 6.09223C8.58203 6.93353 8.49085 7.85928 8.6685 8.7524C8.84616 9.64552 9.28466 10.4659 9.92856 11.1098C10.5725 11.7537 11.3929 12.1922 12.286 12.3699C13.1791 12.5475 14.1048 12.4563 14.9461 12.1079C15.7874 11.7594 16.5065 11.1693 17.0124 10.4121C17.5183 9.65496 17.7884 8.76479 17.7884 7.85417C17.7855 6.63395 17.2995 5.46452 16.4367 4.60169C15.5738 3.73886 14.4044 3.25286 13.1842 3.25Z" fill="#292929"/>
<path d="M3.4342 22.75C3.21872 22.75 3.01205 22.6644 2.85968 22.512C2.70731 22.3596 2.6217 22.153 2.6217 21.9375C2.6217 19.4235 3.6204 17.0124 5.39809 15.2347C7.17578 13.457 9.58684 12.4583 12.1009 12.4583H14.2675C14.483 12.4583 14.6897 12.5439 14.8421 12.6963C14.9944 12.8487 15.08 13.0553 15.08 13.2708C15.08 13.4863 14.9944 13.693 14.8421 13.8454C14.6897 13.9977 14.483 14.0833 14.2675 14.0833H12.1009C10.0187 14.0862 8.02262 14.9146 6.5503 16.3869C5.07798 17.8592 4.24957 19.8553 4.2467 21.9375C4.2439 22.1521 4.15739 22.3571 4.00563 22.5089C3.85386 22.6607 3.64882 22.7472 3.4342 22.75Z" fill="#292929"/>
<path d="M22.5658 21.6667H18.1675C17.952 21.6667 17.7454 21.5811 17.593 21.4287C17.4406 21.2763 17.355 21.0697 17.355 20.8542C17.355 20.6387 17.4406 20.432 17.593 20.2796C17.7454 20.1273 17.952 20.0417 18.1675 20.0417H22.5658C22.7813 20.0417 22.988 20.1273 23.1404 20.2796C23.2927 20.432 23.3783 20.6387 23.3783 20.8542C23.3783 21.0697 23.2927 21.2763 23.1404 21.4287C22.988 21.5811 22.7813 21.6667 22.5658 21.6667Z" fill="#292929"/>
</svg>
